<mxfile host="app.diagrams.net" agent="Mozilla/5.0 (Windows NT 10.0; Win64; x64; rv:141.0) Gecko/20100101 Firefox/141.0" version="27.2.0">
  <diagram id="a45cf8ec-cd66-6f27-3ac3-be6e809c9e4a" name="Page-1">
    <mxGraphModel dx="1426" dy="827" grid="1" gridSize="10" guides="1" tooltips="1" connect="1" arrows="1" fold="1" page="1" pageScale="1" pageWidth="827" pageHeight="1169" background="none" math="0" shadow="0">
      <root>
        <mxCell id="0" />
        <mxCell id="1" parent="0" />
        <mxCell id="168" value="ENTERPRISE NETWORK" style="text;html=1;strokeColor=none;fillColor=none;align=center;verticalAlign=middle;whiteSpace=wrap;overflow=hidden;shadow=0;fontSize=36;fontColor=#AE4132;fontStyle=0" parent="1" vertex="1">
          <mxGeometry x="137" y="15" width="1380" height="45" as="geometry" />
        </mxCell>
        <mxCell id="2qytBPRR-VYNV_ZlygoO-230" style="edgeStyle=orthogonalEdgeStyle;rounded=0;orthogonalLoop=1;jettySize=auto;html=1;" edge="1" parent="1" source="2qytBPRR-VYNV_ZlygoO-179" target="2qytBPRR-VYNV_ZlygoO-229">
          <mxGeometry relative="1" as="geometry" />
        </mxCell>
        <mxCell id="2qytBPRR-VYNV_ZlygoO-179" value="" style="image;aspect=fixed;perimeter=ellipsePerimeter;html=1;align=center;shadow=0;dashed=0;spacingTop=3;image=img/lib/active_directory/internet_cloud.svg;" vertex="1" parent="1">
          <mxGeometry x="654" y="536.8299999999999" width="356.1" height="224.34" as="geometry" />
        </mxCell>
        <mxCell id="2qytBPRR-VYNV_ZlygoO-180" value="" style="html=1;strokeWidth=1;shadow=0;dashed=0;shape=mxgraph.ios7.misc.vpn;fillColor=#007AFF;strokeColor=none;buttonText=;strokeColor2=#222222;fontColor=#222222;fontSize=8;verticalLabelPosition=bottom;verticalAlign=top;align=center;sketch=0;" vertex="1" parent="1">
          <mxGeometry x="772.05" y="598" width="120" height="100" as="geometry" />
        </mxCell>
        <mxCell id="2qytBPRR-VYNV_ZlygoO-197" style="edgeStyle=orthogonalEdgeStyle;rounded=0;orthogonalLoop=1;jettySize=auto;html=1;" edge="1" parent="1" source="2qytBPRR-VYNV_ZlygoO-182" target="2qytBPRR-VYNV_ZlygoO-184">
          <mxGeometry relative="1" as="geometry" />
        </mxCell>
        <mxCell id="2qytBPRR-VYNV_ZlygoO-182" value="" style="image;html=1;image=img/lib/clip_art/networking/Firewall_02_128x128.png" vertex="1" parent="1">
          <mxGeometry x="778.5" y="910" width="107" height="110" as="geometry" />
        </mxCell>
        <mxCell id="2qytBPRR-VYNV_ZlygoO-184" value="" style="rounded=0;whiteSpace=wrap;html=1;" vertex="1" parent="1">
          <mxGeometry x="467" y="1080" width="730" height="180" as="geometry" />
        </mxCell>
        <mxCell id="2qytBPRR-VYNV_ZlygoO-190" value="" style="verticalLabelPosition=bottom;sketch=0;aspect=fixed;html=1;verticalAlign=top;strokeColor=none;align=center;outlineConnect=0;shape=mxgraph.citrix.license_server;" vertex="1" parent="1">
          <mxGeometry x="507" y="1130" width="65" height="85" as="geometry" />
        </mxCell>
        <mxCell id="2qytBPRR-VYNV_ZlygoO-191" value="" style="verticalLabelPosition=bottom;sketch=0;aspect=fixed;html=1;verticalAlign=top;strokeColor=none;align=center;outlineConnect=0;shape=mxgraph.citrix.license_server;" vertex="1" parent="1">
          <mxGeometry x="607" y="1127.5" width="65" height="85" as="geometry" />
        </mxCell>
        <mxCell id="2qytBPRR-VYNV_ZlygoO-192" value="" style="verticalLabelPosition=bottom;sketch=0;aspect=fixed;html=1;verticalAlign=top;strokeColor=none;align=center;outlineConnect=0;shape=mxgraph.citrix.license_server;" vertex="1" parent="1">
          <mxGeometry x="710.5" y="1131.25" width="65" height="85" as="geometry" />
        </mxCell>
        <mxCell id="2qytBPRR-VYNV_ZlygoO-193" value="" style="verticalLabelPosition=bottom;sketch=0;aspect=fixed;html=1;verticalAlign=top;strokeColor=none;align=center;outlineConnect=0;shape=mxgraph.citrix.license_server;" vertex="1" parent="1">
          <mxGeometry x="810.5" y="1128.75" width="65" height="85" as="geometry" />
        </mxCell>
        <mxCell id="2qytBPRR-VYNV_ZlygoO-194" value="" style="verticalLabelPosition=bottom;sketch=0;aspect=fixed;html=1;verticalAlign=top;strokeColor=none;align=center;outlineConnect=0;shape=mxgraph.citrix.license_server;" vertex="1" parent="1">
          <mxGeometry x="907" y="1131.25" width="65" height="85" as="geometry" />
        </mxCell>
        <mxCell id="2qytBPRR-VYNV_ZlygoO-195" value="" style="verticalLabelPosition=bottom;sketch=0;aspect=fixed;html=1;verticalAlign=top;strokeColor=none;align=center;outlineConnect=0;shape=mxgraph.citrix.license_server;" vertex="1" parent="1">
          <mxGeometry x="1007" y="1128.75" width="65" height="85" as="geometry" />
        </mxCell>
        <mxCell id="2qytBPRR-VYNV_ZlygoO-196" value="" style="verticalLabelPosition=bottom;sketch=0;aspect=fixed;html=1;verticalAlign=top;strokeColor=none;align=center;outlineConnect=0;shape=mxgraph.citrix.license_server;" vertex="1" parent="1">
          <mxGeometry x="1107" y="1127.5" width="65" height="85" as="geometry" />
        </mxCell>
        <mxCell id="2qytBPRR-VYNV_ZlygoO-235" style="edgeStyle=orthogonalEdgeStyle;rounded=0;orthogonalLoop=1;jettySize=auto;html=1;" edge="1" parent="1" source="2qytBPRR-VYNV_ZlygoO-198" target="2qytBPRR-VYNV_ZlygoO-184">
          <mxGeometry relative="1" as="geometry" />
        </mxCell>
        <mxCell id="2qytBPRR-VYNV_ZlygoO-198" value="" style="image;points=[];aspect=fixed;html=1;align=center;shadow=0;dashed=0;image=img/lib/allied_telesis/switch/Switch_24_port_L2.svg;" vertex="1" parent="1">
          <mxGeometry x="784.9" y="1310" width="94.2" height="64.57" as="geometry" />
        </mxCell>
        <mxCell id="2qytBPRR-VYNV_ZlygoO-202" value="Internet" style="text;html=1;align=center;verticalAlign=middle;whiteSpace=wrap;rounded=0;" vertex="1" parent="1">
          <mxGeometry x="1024.05" y="654" width="60" height="30" as="geometry" />
        </mxCell>
        <mxCell id="2qytBPRR-VYNV_ZlygoO-203" value="Firewal" style="text;html=1;align=center;verticalAlign=middle;whiteSpace=wrap;rounded=0;" vertex="1" parent="1">
          <mxGeometry x="915" y="950" width="60" height="30" as="geometry" />
        </mxCell>
        <mxCell id="2qytBPRR-VYNV_ZlygoO-204" value="Servidores e Armazenamento" style="text;html=1;align=center;verticalAlign=middle;whiteSpace=wrap;rounded=0;" vertex="1" parent="1">
          <mxGeometry x="780.75" y="1090" width="103" height="30" as="geometry" />
        </mxCell>
        <mxCell id="2qytBPRR-VYNV_ZlygoO-205" value="SwitchCore" style="text;html=1;align=center;verticalAlign=middle;whiteSpace=wrap;rounded=0;" vertex="1" parent="1">
          <mxGeometry x="862.05" y="1300" width="103" height="30" as="geometry" />
        </mxCell>
        <mxCell id="2qytBPRR-VYNV_ZlygoO-206" value="UsuÃ¡rios da sede" style="text;html=1;align=center;verticalAlign=middle;whiteSpace=wrap;rounded=0;" vertex="1" parent="1">
          <mxGeometry x="731.25" y="1660" width="191.5" height="70" as="geometry" />
        </mxCell>
        <mxCell id="2qytBPRR-VYNV_ZlygoO-207" value="" style="verticalLabelPosition=bottom;sketch=0;aspect=fixed;html=1;verticalAlign=top;strokeColor=none;align=center;outlineConnect=0;shape=mxgraph.citrix.desktop;" vertex="1" parent="1">
          <mxGeometry x="978" y="110" width="89" height="98" as="geometry" />
        </mxCell>
        <mxCell id="2qytBPRR-VYNV_ZlygoO-208" value="" style="verticalLabelPosition=bottom;sketch=0;aspect=fixed;html=1;verticalAlign=top;strokeColor=none;align=center;outlineConnect=0;shape=mxgraph.citrix.desktop;" vertex="1" parent="1">
          <mxGeometry x="782.75" y="110" width="89" height="98" as="geometry" />
        </mxCell>
        <mxCell id="2qytBPRR-VYNV_ZlygoO-209" value="" style="verticalLabelPosition=bottom;sketch=0;aspect=fixed;html=1;verticalAlign=top;strokeColor=none;align=center;outlineConnect=0;shape=mxgraph.citrix.desktop;" vertex="1" parent="1">
          <mxGeometry x="590" y="110" width="89" height="98" as="geometry" />
        </mxCell>
        <mxCell id="2qytBPRR-VYNV_ZlygoO-226" style="edgeStyle=orthogonalEdgeStyle;rounded=0;orthogonalLoop=1;jettySize=auto;html=1;" edge="1" parent="1" source="2qytBPRR-VYNV_ZlygoO-210" target="2qytBPRR-VYNV_ZlygoO-214">
          <mxGeometry relative="1" as="geometry" />
        </mxCell>
        <mxCell id="2qytBPRR-VYNV_ZlygoO-210" value="" style="image;points=[];aspect=fixed;html=1;align=center;shadow=0;dashed=0;image=img/lib/allied_telesis/switch/Switch_24_port_L2.svg;" vertex="1" parent="1">
          <mxGeometry x="785.55" y="300" width="94.2" height="64.57" as="geometry" />
        </mxCell>
        <mxCell id="2qytBPRR-VYNV_ZlygoO-217" style="edgeStyle=orthogonalEdgeStyle;rounded=0;orthogonalLoop=1;jettySize=auto;html=1;" edge="1" parent="1" source="2qytBPRR-VYNV_ZlygoO-214" target="2qytBPRR-VYNV_ZlygoO-180">
          <mxGeometry relative="1" as="geometry" />
        </mxCell>
        <mxCell id="2qytBPRR-VYNV_ZlygoO-214" value="VPN Gateway" style="sketch=0;outlineConnect=0;fontColor=#232F3E;gradientColor=none;strokeColor=#232F3E;fillColor=#ffffff;dashed=0;verticalLabelPosition=bottom;verticalAlign=top;align=center;html=1;fontSize=12;fontStyle=0;aspect=fixed;shape=mxgraph.aws4.resourceIcon;resIcon=mxgraph.aws4.vpn_gateway;" vertex="1" parent="1">
          <mxGeometry x="802.05" y="430" width="60" height="60" as="geometry" />
        </mxCell>
        <mxCell id="2qytBPRR-VYNV_ZlygoO-223" style="edgeStyle=orthogonalEdgeStyle;rounded=0;orthogonalLoop=1;jettySize=auto;html=1;entryX=0.44;entryY=0.062;entryDx=0;entryDy=0;entryPerimeter=0;" edge="1" parent="1" source="2qytBPRR-VYNV_ZlygoO-208" target="2qytBPRR-VYNV_ZlygoO-210">
          <mxGeometry relative="1" as="geometry" />
        </mxCell>
        <mxCell id="2qytBPRR-VYNV_ZlygoO-224" style="edgeStyle=orthogonalEdgeStyle;rounded=0;orthogonalLoop=1;jettySize=auto;html=1;entryX=0.992;entryY=0.511;entryDx=0;entryDy=0;entryPerimeter=0;" edge="1" parent="1" source="2qytBPRR-VYNV_ZlygoO-207" target="2qytBPRR-VYNV_ZlygoO-210">
          <mxGeometry relative="1" as="geometry" />
        </mxCell>
        <mxCell id="2qytBPRR-VYNV_ZlygoO-225" style="edgeStyle=orthogonalEdgeStyle;rounded=0;orthogonalLoop=1;jettySize=auto;html=1;entryX=-0.006;entryY=0.511;entryDx=0;entryDy=0;entryPerimeter=0;" edge="1" parent="1" source="2qytBPRR-VYNV_ZlygoO-209" target="2qytBPRR-VYNV_ZlygoO-210">
          <mxGeometry relative="1" as="geometry" />
        </mxCell>
        <mxCell id="2qytBPRR-VYNV_ZlygoO-231" style="edgeStyle=orthogonalEdgeStyle;rounded=0;orthogonalLoop=1;jettySize=auto;html=1;" edge="1" parent="1" source="2qytBPRR-VYNV_ZlygoO-229" target="2qytBPRR-VYNV_ZlygoO-182">
          <mxGeometry relative="1" as="geometry" />
        </mxCell>
        <mxCell id="2qytBPRR-VYNV_ZlygoO-229" value="VPN Gateway" style="sketch=0;outlineConnect=0;fontColor=#232F3E;gradientColor=none;strokeColor=#232F3E;fillColor=#ffffff;dashed=0;verticalLabelPosition=bottom;verticalAlign=top;align=center;html=1;fontSize=12;fontStyle=0;aspect=fixed;shape=mxgraph.aws4.resourceIcon;resIcon=mxgraph.aws4.vpn_gateway;" vertex="1" parent="1">
          <mxGeometry x="802.05" y="800" width="60" height="60" as="geometry" />
        </mxCell>
        <mxCell id="2qytBPRR-VYNV_ZlygoO-232" value="" style="verticalLabelPosition=bottom;sketch=0;aspect=fixed;html=1;verticalAlign=top;strokeColor=none;align=center;outlineConnect=0;shape=mxgraph.citrix.desktop;" vertex="1" parent="1">
          <mxGeometry x="992.5" y="1540" width="89" height="98" as="geometry" />
        </mxCell>
        <mxCell id="2qytBPRR-VYNV_ZlygoO-236" style="edgeStyle=orthogonalEdgeStyle;rounded=0;orthogonalLoop=1;jettySize=auto;html=1;" edge="1" parent="1" source="2qytBPRR-VYNV_ZlygoO-233" target="2qytBPRR-VYNV_ZlygoO-198">
          <mxGeometry relative="1" as="geometry" />
        </mxCell>
        <mxCell id="2qytBPRR-VYNV_ZlygoO-233" value="" style="verticalLabelPosition=bottom;sketch=0;aspect=fixed;html=1;verticalAlign=top;strokeColor=none;align=center;outlineConnect=0;shape=mxgraph.citrix.desktop;" vertex="1" parent="1">
          <mxGeometry x="788.25" y="1540" width="89" height="98" as="geometry" />
        </mxCell>
        <mxCell id="2qytBPRR-VYNV_ZlygoO-234" value="" style="verticalLabelPosition=bottom;sketch=0;aspect=fixed;html=1;verticalAlign=top;strokeColor=none;align=center;outlineConnect=0;shape=mxgraph.citrix.desktop;" vertex="1" parent="1">
          <mxGeometry x="604.5" y="1540" width="89" height="98" as="geometry" />
        </mxCell>
        <mxCell id="2qytBPRR-VYNV_ZlygoO-237" style="edgeStyle=orthogonalEdgeStyle;rounded=0;orthogonalLoop=1;jettySize=auto;html=1;entryX=0.999;entryY=0.604;entryDx=0;entryDy=0;entryPerimeter=0;" edge="1" parent="1" source="2qytBPRR-VYNV_ZlygoO-232" target="2qytBPRR-VYNV_ZlygoO-198">
          <mxGeometry relative="1" as="geometry" />
        </mxCell>
        <mxCell id="2qytBPRR-VYNV_ZlygoO-238" style="edgeStyle=orthogonalEdgeStyle;rounded=0;orthogonalLoop=1;jettySize=auto;html=1;entryX=-0.01;entryY=0.542;entryDx=0;entryDy=0;entryPerimeter=0;" edge="1" parent="1" source="2qytBPRR-VYNV_ZlygoO-234" target="2qytBPRR-VYNV_ZlygoO-198">
          <mxGeometry relative="1" as="geometry" />
        </mxCell>
      </root>
    </mxGraphModel>
  </diagram>
</mxfile>
